:FULLY-SPECIFIED
:FORCE-ALL-JOINTS-BE-3DOF
:DEGREES
306
root -0.848063 15.4624 -36.2465 7.58714 68.2916 4.93901
lfemur -20.0018 21.8272 -24.9547
ltibia 56.4995 0 0
lfoot -28.4941 29.8019 0
ltoes 3.35144 0 0
rfemur -38.7192 -10.4563 14.5837
rtibia 81.6909 0 0
rfoot -11.82 -21.7591 0
rtoes -25.035 0 0
lowerback 17.8214 -0.499954 -6.36066
upperback -1.36904 -2.17356 3.09711
thorax -11.0946 -0.448385 7.75473
lowerneck -7.02457 4.54611 1.78611
upperneck 5.75662 6.34426 -5.45875
head 3.10092 3.00107 -1.79656
lclavicle -4.93575e-14 -1.54558e-15 0
lhumerus 35.992 -17.2944 58.1565
lradius 9.1515 0 0
lwrist -65.4035 0 0
lhand -22.3778 38.7874 0
lfingers 7.12502 0 0
lthumb 4.04555 68.757 0
rclavicle -4.93575e-14 -1.54558e-15 0
rhumerus -67.661 22.893 -93.8549
rradius 144.552 0 0
rwrist -79.4703 0 0
rhand 58.8385 -5.45183 0
rfingers 7.12502 0 0
rthumb 79.8229 -9.77093 0
307
root -0.733631 15.4469 -36.2089 7.35591 68.7854 5.22254
lfemur -19.5449 20.7735 -24.9869
ltibia 56.423 0 0
lfoot -28.105 29.4522 0
ltoes 2.47438 0 0
rfemur -39.9899 -10.2804 14.9291
rtibia 82.6006 0 0
rfoot -12.1703 -20.7218 0
rtoes -24.5983 0 0
lowerback 18.3704 -0.5023 -6.79228
upperback -1.26175 -2.30287 3.02065
thorax -11.2525 -0.483613 7.96469
lowerneck -6.95214 4.48682 1.72834
upperneck 5.72148 6.2558 -5.28589
head 3.0385 2.96457 -1.73914
lclavicle -5.43865e-14 -2.06087e-15 0
lhumerus 37.905 -20.4065 58.2511
lradius 10.2905 0 0
lwrist -64.3241 0 0
lhand -22.9801 38.3749 0
lfingers 7.12502 0 0
lthumb 3.46422 68.3641 0
rclavicle -5.43865e-14 -2.06087e-15 0
rhumerus -67.443 24.8118 -93.9194
rradius 145.86 0 0
rwrist -78.2883 0 0
rhand 57.8676 -5.63956 0
rfingers 7.12502 0 0
rthumb 79.0231 -11.0531 0
308
root -0.6192 15.4313 -36.1713 7.58385 69.2579 5.96842
lfemur -19.0244 19.6312 -24.9804
ltibia 56.3353 0 0
lfoot -27.7148 29.1068 0
ltoes 1.5348 0 0
rfemur -41.3142 -10.0906 15.224
rtibia 83.3797 0 0
rfoot -12.4626 -19.5381 0
rtoes -24.0049 0 0
lowerback 18.9053 -0.482595 -7.23031
upperback -1.15268 -2.40196 2.92669
thorax -11.4055 -0.505574 8.15028
lowerneck -6.86149 4.38133 1.63069
upperneck 5.6677 6.10528 -5.06755
head 2.97232 2.89791 -1.66236
lclavicle -5.89458e-14 -2.56602e-15 0
lhumerus 39.3711 -23.5706 58.551
lradius 11.8774 0 0
lwrist -62.694 0 0
lhand -23.5314 37.9653 0
lfingers 7.12502 0 0
lthumb 2.93207 67.9715 0
rclavicle -5.89458e-14 -2.56602e-15 0
rhumerus -66.7381 26.6829 -93.8352
rradius 146.596 0 0
rwrist -76.668 0 0
rhand 56.4795 -5.96241 0
rfingers 7.12502 0 0
rthumb 77.8326 -12.5899 0
309
root -0.504768 15.4157 -36.1337 8.37842 69.7571 7.29245
lfemur -18.3965 18.3907 -24.9351
ltibia 56.215 0 0
lfoot -27.3371 28.7822 0
ltoes 0.539305 0 0
rfemur -42.7038 -9.87649 15.452
rtibia 84.0167 0 0
rfoot -12.6664 -18.1888 0
rtoes -23.2242 0 0
lowerback 19.4236 -0.438721 -7.68607
upperback -1.03973 -2.47011 2.81294
thorax -11.5508 -0.513387 8.31508
lowerneck -6.75284 4.21312 1.48187
upperneck 5.59333 5.87075 -4.79295
head 2.90242 2.7902 -1.56154
lclavicle -6.30222e-14 -3.0554e-15 0
lhumerus 40.3116 -26.7288 59.0755
lradius 13.9014 0 0
lwrist -60.4698 0 0
lhand -24.0155 37.5595 0
lfingers 7.12502 0 0
lthumb 2.46472 67.5794 0
rclavicle -6.30222e-14 -3.0554e-15 0
rhumerus -65.4724 28.4611 -93.5785
rradius 146.721 0 0
rwrist -74.608 0 0
rhand 54.657 -6.41941 0
rfingers 7.12502 0 0
rthumb 76.2341 -14.3751 0
310
root -0.390336 15.4002 -36.0961 9.84709 70.3312 9.31043
lfemur -17.618 17.0423 -24.8509
ltibia 56.0404 0 0
lfoot -26.9855 28.4948 0
ltoes -0.505472 0 0
rfemur -44.1704 -9.62799 15.5966
rtibia 84.5005 0 0
rfoot -12.7513 -16.6549 0
rtoes -22.2258 0 0
lowerback 19.9226 -0.368561 -8.17088
upperback -0.920758 -2.50661 2.67711
thorax -11.6855 -0.506168 8.46268
lowerneck -6.62641 3.96568 1.27057
upperneck 5.49644 5.53024 -4.45132
head 2.82884 2.63058 -1.43199
lclavicle -6.66025e-14 -3.52336e-15 0
lhumerus 40.648 -29.8232 59.8437
lradius 16.3514 0 0
lwrist -57.6083 0 0
lhand -24.4163 37.1582 0
lfingers 7.12502 0 0
lthumb 2.07781 67.1879 0
rclavicle -6.66025e-14 -3.52336e-15 0
rhumerus -63.5716 30.1009 -93.1254
rradius 146.193 0 0
rwrist -72.1069 0 0
rhand 52.3827 -7.00956 0
rfingers 7.12502 0 0
rthumb 74.2102 -16.4024 0
311
root -0.275905 15.3846 -36.0585 12.0973 71.0282 12.1382
lfemur -16.6453 15.5766 -24.7277
ltibia 55.79 0 0
lfoot -26.6736 28.2611 0
ltoes -1.59292 0 0
rfemur -45.7256 -9.33487 15.6414
rtibia 84.8196 0 0
rfoot -12.6868 -14.9169 0
rtoes -20.9794 0 0
lowerback 20.3997 -0.269997 -8.69606
upperback -0.79365 -2.51075 2.51692
thorax -11.8068 -0.483034 8.59668
lowerneck -6.48239 3.6225 0.985492
upperneck 5.37506 5.06183 -4.03189
head 2.75161 2.40814 -1.26905
lclavicle -6.96736e-14 -3.96427e-15 0
lhumerus 40.3016 -32.7955 60.875
lradius 19.2165 0 0
lwrist -54.0664 0 0
lhand -24.7174 36.7623 0
lfingers 7.12502 0 0
lthumb 1.78697 66.7971 0
rclavicle -6.96736e-14 -3.96427e-15 0
rhumerus -60.9617 31.5574 -92.452
rradius 144.972 0 0
rwrist -69.1633 0 0
rhand 49.6394 -7.7319 0
rfingers 7.12502 0 0
rthumb 71.7434 -18.6657 0
312
root -0.161473 15.369 -36.0209 15.2366 71.896 15.8914
lfemur -15.435 13.9839 -24.5655
ltibia 55.4422 0 0
lfoot -26.415 28.0978 0
ltoes -2.7164 0 0
rfemur -47.381 -8.98692 15.5702
rtibia 84.9629 0 0
rfoot -12.4427 -12.9558 0
rtoes -19.4545 0 0
lowerback 20.8523 -0.140912 -9.27294
upperback -0.65628 -2.48181 2.33007
thorax -11.9117 -0.443102 8.72064
lowerneck -6.32101 3.16705 0.615331
upperneck 5.22725 4.44354 -3.52389
head 2.67076 2.11202 -1.06803
lclavicle -7.22223e-14 -4.37251e-15 0
lhumerus 39.1938 -35.588 62.1884
lradius 22.4858 0 0
lwrist -49.8007 0 0
lhand -24.9027 36.3724 0
lfingers 7.12502 0 0
lthumb 1.60783 66.4071 0
rclavicle -7.22223e-14 -4.37251e-15 0
rhumerus -57.5685 32.7852 -91.5345
rradius 143.017 0 0
rwrist -65.7757 0 0
rhand 46.4098 -8.58542 0
rfingers 7.12502 0 0
rthumb 68.8163 -21.1587 0
313
root -0.0470417 15.3535 -35.9833 19.3724 72.9828 20.686
lfemur -13.9436 12.2547 -24.3643
ltibia 54.9755 0 0
lfoot -26.2232 28.0212 0
ltoes -3.86932 0 0
rfemur -49.1482 -8.57393 15.3664
rtibia 84.9189 0 0
rfoot -11.9884 -10.7523 0
rtoes -17.6207 0 0
lowerback 21.2777 0.0208131 -9.91284
upperback -0.506527 -2.41908 2.11429
thorax -11.9974 -0.385489 8.83817
lowerneck -6.14247 2.58282 0.148786
upperneck 5.05106 3.65344 -2.91653
head 2.58632 1.73134 -0.824253
lclavicle -7.42354e-14 -4.74243e-15 0
lhumerus 37.2459 -38.1426 63.8032
lradius 26.1482 0 0
lwrist -44.7681 0 0
lhand -24.956 35.9895 0
lfingers 7.12502 0 0
lthumb 1.55601 66.0179 0
rclavicle -7.42354e-14 -4.74243e-15 0
rhumerus -53.3178 33.7392 -90.3491
rradius 140.288 0 0
rwrist -61.9427 0 0
rhand 42.6768 -9.56916 0
rfingers 7.12502 0 0
rthumb 65.4117 -23.8751 0
314
root 0.0673899 15.3379 -35.9457 24.6121 74.3367 26.6377
lfemur -12.1278 10.3794 -24.1239
ltibia 54.3684 0 0
lfoot -26.1118 28.0478 0
ltoes -5.04504 0 0
rfemur -51.039 -8.08571 15.0136
rtibia 84.6763 0 0
rfoot -11.2936 -8.28715 0
rtoes -15.4475 0 0
lowerback 21.6733 0.217295 -10.6271
upperback -0.342267 -2.32184 1.86728
thorax -12.061 -0.309312 8.95285
lowerneck -5.94698 1.85329 -0.425443
upperneck 4.84455 2.66957 -2.19906
head 2.49833 1.2552 -0.533031
lclavicle -7.56998e-14 -5.06841e-15 0
lhumerus 34.3793 -40.4013 65.7387
lradius 30.1929 0 0
lwrist -38.9252 0 0
lhand -24.8612 35.6142 0
lfingers 7.12502 0 0
lthumb 1.64716 65.6298 0
rclavicle -7.56998e-14 -5.06841e-15 0
rhumerus -48.1357 34.374 -88.8718
rradius 136.743 0 0
rwrist -57.6629 0 0
rhand 38.423 -10.6821 0
rfingers 7.12502 0 0
rthumb 61.512 -26.8088 0
315
root 0.181821 15.3224 -35.9081 31.0633 76.0056 33.8624
lfemur -9.94389 8.34845 -23.8443
ltibia 53.5991 0 0
lfoot -26.0944 28.1942 0
ltoes -6.23695 0 0
rfemur -53.0649 -7.51204 14.4956
rtibia 84.2239 0 0
rfoot -10.3279 -5.5412 0
rtoes -12.9046 0 0
lowerback 22.0366 0.450651 -11.427
upperback -0.161377 -2.18938 1.58676
thorax -12.0997 -0.213688 9.06827
lowerneck -5.73476 0.961956 -1.11866
upperneck 4.60578 1.46998 -1.36068
head 2.40682 0.672736 -0.189686
lclavicle -7.66023e-14 -5.3448e-15 0
lhumerus 30.5153 -42.3062 68.014
lradius 34.6088 0 0
lwrist -32.2289 0 0
lhand -24.6019 35.2475 0
lfingers 7.12502 0 0
lthumb 1.89691 65.2429 0
rclavicle -7.66023e-14 -5.3448e-15 0
rhumerus -41.9479 34.6446 -87.0787
rradius 132.344 0 0
rwrist -52.9349 0 0
rhand 33.6312 -11.9233 0
rfingers 7.12502 0 0
rthumb 57.0999 -29.9536 0
316
root 0.296253 15.3068 -35.8705 38.8334 78.0376 42.4757
lfemur -7.34858 6.15222 -23.5254
ltibia 52.6463 0 0
lfoot -26.1847 28.4769 0
ltoes -7.43842 0 0
rfemur -55.2376 -6.84273 13.7958
rtibia 83.5503 0 0
rfoot -9.06077 -2.4952 0
rtoes -9.96148 0 0
lowerback 22.3648 0.722999 -12.3239
upperback 0.0382666 -2.02099 1.27043
thorax -12.1105 -0.0977334 9.18801
lowerneck -5.50601 -0.107707 -1.94216
upperneck 4.33278 0.0327216 -0.390636
head 2.31182 -0.0269426 0.210461
lclavicle -7.69297e-14 -5.56597e-15 0
lhumerus 25.5754 -43.7991 70.6484
lradius 39.3851 0 0
lwrist -24.6359 0 0
lhand -24.162 34.89 0
lfingers 7.12502 0 0
lthumb 2.32088 64.8571 0
rclavicle -7.69297e-14 -5.56597e-15 0
rhumerus -34.6803 34.5056 -84.9461
rradius 127.048 0 0
rwrist -47.7571 0 0
rhand 28.2842 -13.2918 0
rfingers 7.12502 0 0
rthumb 52.1579 -33.3032 0
317
root 0.48327 15.2554 -35.7975 46.7199 80.0734 51.1765
lfemur -4.76416 4.06171 -23.2186
ltibia 51.7172 0 0
lfoot -26.352 28.8191 0
ltoes -8.51979 0 0
rfemur -57.2549 -6.15057 13.0086
rtibia 82.6845 0 0
rfoot -7.66312 0.47163 0
rtoes -7.0005 0 0
lowerback 22.6397 0.998703 -13.1858
upperback 0.233442 -1.83769 0.958458
thorax -12.1012 0.0226825 9.28589
lowerneck -5.29443 -1.18898 -2.77082
upperneck 4.05862 -1.41772 0.570806
head 2.22416 -0.733746 0.610053
lclavicle -7.67382e-14 -5.6933e-15 0
lhumerus 20.267 -44.8714 73.3123
lradius 44.0707 0 0
lwrist -17.0155 0 0
lhand -23.6217 34.5764 0
lfingers 7.12502 0 0
lthumb 2.84175 64.5114 0
rclavicle -7.67382e-14 -5.6933e-15 0
rhumerus -27.2917 34.122 -82.7461
rradius 121.49 0 0
rwrist -42.6979 0 0
rhand 22.9572 -14.649 0
rfingers 7.12502 0 0
rthumb 47.22 -36.5239 0
318
root 0.670288 15.204 -35.7244 53.5245 81.7397 58.666
lfemur -2.61638 2.33416 -22.9694
ltibia 51.0171 0 0
lfoot -26.5539 29.135 0
ltoes -9.36998 0 0
rfemur -58.8326 -5.5152 12.2393
rtibia 81.6733 0 0
rfoot -6.32624 2.99221 0
rtoes -4.40404 0 0
lowerback 22.8459 1.243 -13.8814
upperback 0.400362 -1.65953 0.689963
thorax -12.0813 0.1322 9.3351
lowerneck -5.12974 -2.11389 -3.47963
upperneck 3.81577 -2.65558 1.3853
head 2.15371 -1.33687 0.952124
lclavicle -7.60882e-14 -5.70021e-15 0
lhumerus 15.3205 -45.5696 75.6833
lradius 48.2552 0 0
lwrist -10.2173 0 0
lhand -23.0714 34.3377 0
lfingers 7.12502 0 0
lthumb 3.37233 64.2415 0
rclavicle -7.60882e-14 -5.70021e-15 0
rhumerus -20.7373 33.6845 -80.7544
rradius 116.3 0 0
rwrist -38.2822 0 0
rhand 18.2025 -15.8673 0
rfingers 7.12502 0 0
rthumb 42.8004 -39.3125 0
319
root 0.857305 15.1526 -35.6514 59.3606 83.0632 65.0639
lfemur -0.866949 0.939414 -22.7689
ltibia 50.5209 0 0
lfoot -26.7856 29.4277 0
ltoes -10.0103 0 0
rfemur -60.0092 -4.93667 11.4879
rtibia 80.5321 0 0
rfoot -5.05039 5.10392 0
rtoes -2.1418 0 0
lowerback 22.985 1.4593 -14.4231
upperback 0.5403 -1.48433 0.46111
thorax -12.051 0.232467 9.33828
lowerneck -5.00617 -2.89705 -4.0801
upperneck 3.6014 -3.70085 2.06651
head 2.09901 -1.84613 1.24195
lclavicle -7.49726e-14 -5.59915e-15 0
lhumerus 10.6912 -45.9185 77.7912
lradius 51.9883 0 0
lwrist -4.16861 0 0
lhand -22.5101 34.1698 0
lfingers 7.12502 0 0
lthumb 3.9135 64.0431 0
rclavicle -7.49726e-14 -5.59915e-15 0
rhumerus -14.9381 33.1867 -78.9526
rradius 111.429 0 0
rwrist -34.4436 0 0
rhand 13.9687 -16.9615 0
rfingers 7.12502 0 0
rthumb 38.8521 -41.7082 0
